<?xml version="1.0" encoding="utf-8"?>
<!-- Generator: Adobe Illustrator 14.0.0, SVG Export Plug-In . SVG Version: 6.00 Build 43363)  -->
<!DOCTYPE svg PUBLIC "-//W3C//DTD SVG 1.1//EN" "http://www.w3.org/Graphics/SVG/1.1/DTD/svg11.dtd">
<svg version="1.1" id="Layer_1" xmlns="http://www.w3.org/2000/svg" xmlns:xlink="http://www.w3.org/1999/xlink" x="0px" y="0px"
	 width="53px" height="35px" viewBox="0 0 53 35" enable-background="new 0 0 53 35" xml:space="preserve">
<path fill="#39B54A" d="M41.636,20.074c0.435,1.904,0.325,4.189,0.367,6.353C42.107,24.102,42.839,21.686,41.636,20.074"/>
<path fill="#39B54A" d="M42.091,28.191c0.027,0.313,0.06,0.626,0.107,0.927c-0.911,1.2-2.298,1.703-3.766,2.281
	c1.468-0.578,3.094-0.859,4.004-2.059C42.271,28.971,42.16,28.587,42.091,28.191"/>
<path fill="#39B54A" d="M42.091,28.191c-0.05-0.571-0.075-1.162-0.088-1.765C41.976,27.026,41.99,27.62,42.091,28.191"/>
<path fill="#39B54A" d="M42.198,29.118c-0.048-0.301-0.078-0.613-0.107-0.927c-0.101-0.571-0.115-1.165-0.088-1.765
	c-0.042-2.163,0.067-4.448-0.367-6.353c-2.091-1.303-4.183-2.605-6.064-4.119c0.146-0.273,0.419-0.422,0.343-0.915
	c-0.2-0.372-0.413-0.729-0.571-1.144c0.256-2.752,0.812-6.122,0.114-8.353c-0.623-0.673-1.413-1.179-2.174-1.714
	c-0.478-0.059-0.503,0.333-1.029,0.227c-2.212-0.685-3.811-1.984-5.948-2.745c-0.164,0.064-0.28,0.178-0.343,0.343
	c-1,0.272-2.012,0.415-2.976,0.687c-0.958,0.271-1.835,0.757-2.744,0.915c-0.638,0.111-1.499-0.229-1.946,0.458
	c0.297,2.948-0.119,7.586-0.228,11.211c-2.241,1.063-4.503,2.506-7.322,2.631c-0.301,2.231-0.149,6.126-0.114,8.923
	c1.308,0.977,2.646,2.15,4.118,3.203c1.322,0.949,3.06,2.363,4.462,2.976c0.971,0.424,1.66-0.099,2.86-0.457
	c2.046-0.61,4.652-0.564,5.605-1.26c2.025,0.645,3.3,2.041,5.263,2.747c2.169-0.526,3.64-1.561,5.492-2.289
	C39.9,30.821,41.287,30.318,42.198,29.118 M20.814,6.232c1.446,0.994,3.214,1.666,4.806,2.516c0.144,2.428-0.049,5.144-0.229,8.352
	c-2.191-0.363-3.569-1.542-5.034-2.631C20.425,11.974,20.613,8.54,20.814,6.232 M18.412,30.027
	c-2.252-1.078-3.977-2.102-5.814-4.367c0.119-1.369-0.08-5.813-0.074-5.958c1.876,0.452,3.704,1.832,5.087,2.773
	C18.684,24.238,18.616,27.233,18.412,30.027 M19.212,21.332c-1.425-0.672-2.636-1.559-4.004-2.288
	c1.443-1.073,3.708-1.325,5.262-2.288c1.341,0.985,3.322,1.332,4.348,2.631C22.913,19.999,21.01,20.614,19.212,21.332
	 M25.276,29.111c-1.348,0.444-3.092,0.493-4.461,0.916c-0.08-1.809-0.144-3.961-0.229-6.064c1.039-1.361,3.281-1.521,5.034-2.173
	C26.435,23.763,25.672,27.139,25.276,29.111 M26.649,7.375c-1.51-0.778-3.295-1.281-4.462-2.403
	c1.437-0.432,2.896-0.842,4.348-1.258c1.63,0.542,3.24,1.107,4.576,1.945C29.813,6.421,28.217,6.885,26.649,7.375 M28.022,9.434
	c1.624-0.854,3.61-1.345,5.261-2.173c0.378,2.361-0.199,4.759-0.228,7.093c-1.663,0.893-3.464,1.647-5.263,2.403
	C27.73,14.002,28.187,11.889,28.022,9.434 M32.369,31.056c-1.518-0.251-3.085-1.404-4.461-2.172
	c0.102-2.767,0.329-4.935,0.342-7.324c1.203,0.552,2.267,1.244,3.547,1.717C32.483,25.521,32.363,28.025,32.369,31.056
	 M32.713,21.676c-1.813-0.207-2.974-1.818-4.576-2.288c1.315-1.239,3.329-1.78,5.033-2.631c1.687,1.173,3.691,2.027,5.033,3.547
	C36.402,20.332,34.656,21.896,32.713,21.676 M39.806,27.968c-1.386,1.131-3.401,1.633-5.263,2.289c0-2.838-0.135-3.437-0.115-6.179
	c1.682-0.8,3.506-1.451,5.605-1.83C40.051,23.834,39.768,26.33,39.806,27.968"/>
<path d="M41.588,20.086c0.436,1.914,0.326,4.21,0.369,6.383C42.061,24.133,42.797,21.706,41.588,20.086"/>
<path d="M42.045,28.241c0.029,0.316,0.061,0.629,0.107,0.931c-0.914,1.206-2.309,1.713-3.783,2.293
	c1.475-0.58,3.109-0.862,4.023-2.068C42.227,29.026,42.115,28.639,42.045,28.241"/>
<path d="M42.045,28.241c-0.051-0.573-0.074-1.167-0.088-1.772C41.93,27.071,41.945,27.668,42.045,28.241"/>
<path d="M42.272,29.172c-0.047-0.302-0.078-0.614-0.107-0.931c-0.102-0.573-0.115-1.17-0.088-1.772
	c-0.043-2.173,0.066-4.468-0.369-6.383c-2.102-1.308-4.203-2.617-6.092-4.139c0.146-0.273,0.42-0.422,0.344-0.918
	c-0.201-0.374-0.416-0.732-0.574-1.149c0.256-2.765,0.814-6.15,0.115-8.391c-0.625-0.677-1.42-1.186-2.184-1.724
	c-0.48-0.059-0.508,0.335-1.035,0.229C30.06,3.306,28.452,2,26.307,1.235C26.142,1.3,26.025,1.414,25.962,1.58
	c-1.006,0.274-2.021,0.417-2.99,0.69c-0.962,0.271-1.844,0.76-2.758,0.918c-0.64,0.112-1.505-0.23-1.954,0.46
	c0.298,2.962-0.119,7.622-0.229,11.264c-2.251,1.067-4.523,2.518-7.356,2.644c-0.304,2.24-0.15,6.154-0.114,8.966
	c1.313,0.979,2.658,2.159,4.137,3.217c1.328,0.953,3.074,2.376,4.482,2.99c0.977,0.425,1.668-0.101,2.875-0.46
	c2.055-0.614,4.673-0.566,5.631-1.265c2.035,0.646,3.314,2.049,5.287,2.759c2.18-0.528,3.656-1.567,5.518-2.3
	C39.964,30.885,41.358,30.378,42.272,29.172 M20.788,6.179c1.453,0.999,3.23,1.674,4.828,2.527c0.146,2.44-0.049,5.169-0.229,8.392
	c-2.201-0.365-3.586-1.549-5.058-2.644C20.397,11.948,20.587,8.499,20.788,6.179 M18.375,30.087
	c-2.263-1.084-3.995-2.113-5.843-4.388c0.121-1.376-0.079-5.84-0.073-5.986c1.885,0.453,3.722,1.84,5.111,2.787
	C18.648,24.27,18.581,27.279,18.375,30.087 M19.179,21.351c-1.431-0.676-2.648-1.566-4.021-2.299c1.449-1.079,3.725-1.332,5.287-2.3
	c1.347,0.991,3.337,1.338,4.367,2.645C22.898,20.011,20.985,20.628,19.179,21.351 M25.272,29.166
	c-1.355,0.446-3.107,0.496-4.484,0.921c-0.08-1.818-0.144-3.98-0.229-6.093c1.043-1.368,3.297-1.53,5.057-2.184
	C26.437,23.793,25.67,27.185,25.272,29.166 M26.651,7.328c-1.518-0.782-3.312-1.288-4.483-2.415
	c1.443-0.435,2.909-0.846,4.367-1.264c1.64,0.545,3.255,1.113,4.599,1.954C29.829,6.369,28.228,6.835,26.651,7.328 M28.03,9.396
	c1.631-0.858,3.629-1.352,5.287-2.184c0.379,2.372-0.199,4.781-0.23,7.126c-1.67,0.896-3.479,1.655-5.287,2.413
	C27.737,13.986,28.194,11.863,28.03,9.396 M32.397,31.12c-1.523-0.252-3.098-1.412-4.482-2.184c0.104-2.779,0.33-4.957,0.344-7.356
	c1.209,0.554,2.277,1.248,3.564,1.724C32.513,25.559,32.394,28.075,32.397,31.12 M32.743,21.695
	c-1.822-0.208-2.988-1.827-4.598-2.299c1.322-1.245,3.346-1.788,5.057-2.645c1.695,1.181,3.709,2.039,5.057,3.564
	C36.448,20.347,34.696,21.918,32.743,21.695 M39.868,28.017c-1.391,1.138-3.416,1.642-5.287,2.299c0-2.849-0.135-3.451-0.115-6.206
	c1.689-0.803,3.523-1.458,5.633-1.839C40.116,23.864,39.831,26.372,39.868,28.017"/>
</svg>
