<?xml version="1.0" standalone="no"?>
<!DOCTYPE svg PUBLIC "-//W3C//DTD SVG 20010904//EN"
 "http://www.w3.org/TR/2001/REC-SVG-20010904/DTD/svg10.dtd">
<svg version="1.0" xmlns="http://www.w3.org/2000/svg"
 width="191.000000pt" height="294.000000pt" viewBox="0 0 191.000000 294.000000"
 preserveAspectRatio="xMidYMid meet">
<metadata>
Created by potrace 1.11, written by Peter Selinger 2001-2013
</metadata>
<g transform="translate(0.000000,294.000000) scale(0.100000,-0.100000)"
fill="#000000" stroke="none">
<path d="M595 2930 c-230 -35 -446 -248 -531 -523 -26 -85 -27 -96 -21 -235 8
-190 32 -286 130 -508 85 -192 107 -265 107 -350 0 -73 -21 -120 -86 -199 -91
-110 -102 -141 -69 -205 15 -28 14 -30 -4 -30 -29 0 -38 -18 -54 -113 -11 -59
-24 -102 -41 -128 l-26 -39 61 -177 c65 -193 100 -260 169 -330 105 -108 227
-118 429 -37 95 38 121 57 121 89 0 20 6 23 59 28 117 10 205 81 200 158 -3
29 5 50 34 93 32 49 36 60 31 98 -5 39 -3 45 18 57 14 7 33 27 43 44 10 18 26
41 37 53 17 19 17 23 3 57 -8 19 -19 38 -24 42 -6 3 -2 19 8 38 10 18 21 59
24 91 8 82 56 174 131 253 33 35 135 126 226 201 206 172 271 247 295 340 31
125 45 227 45 337 -1 226 -63 387 -213 550 -171 186 -391 299 -662 340 -105
16 -351 18 -440 5z m519 -134 c299 -77 509 -274 612 -576 38 -111 17 -386 -37
-493 -35 -67 -142 -171 -309 -297 -85 -64 -171 -135 -190 -156 -41 -46 -174
-294 -185 -345 -9 -45 -32 -79 -52 -79 -13 0 -15 8 -10 49 10 85 52 186 132
318 43 71 86 137 96 148 10 11 59 43 110 70 51 28 114 69 139 92 41 37 51 55
75 127 34 103 31 149 -14 241 -43 86 -85 122 -155 130 -52 7 -57 10 -81 52
-54 92 -151 131 -295 118 -56 -5 -80 -4 -85 5 -4 7 -31 23 -59 36 -62 29 -159
32 -231 7 -109 -37 -180 -158 -157 -267 6 -28 14 -67 17 -86 3 -19 37 -100 75
-180 78 -163 99 -235 80 -280 -9 -22 -9 -38 -1 -60 11 -34 3 -99 -26 -185 -19
-60 -72 -169 -79 -162 -5 5 -24 136 -26 172 0 11 3 52 7 90 11 100 -16 194
-113 406 -121 263 -139 331 -129 482 22 327 216 579 492 643 90 21 275 11 399
-20z m-389 -691 c23 -22 25 -31 25 -129 0 -96 2 -107 24 -133 22 -25 31 -28
85 -28 84 0 99 17 115 125 9 66 16 86 33 97 26 17 54 6 79 -33 17 -25 16 -82
-2 -185 -6 -36 -6 -37 49 -64 50 -24 60 -26 91 -15 20 6 45 25 58 43 12 18 23
34 26 37 2 3 10 -4 18 -14 20 -28 17 -93 -6 -142 -26 -52 -68 -80 -192 -128
-135 -52 -152 -74 -273 -355 -40 -93 -80 -182 -88 -198 -9 -15 -18 -40 -21
-54 -3 -14 -18 -39 -33 -55 l-27 -29 -9 45 c-11 56 4 153 44 286 17 54 33 122
35 149 2 28 7 80 10 117 8 81 -4 122 -92 309 -41 88 -64 150 -64 172 0 20 -5
48 -10 63 -14 36 -4 77 27 114 31 37 65 39 98 5z m-293 -1288 c14 -13 87 -46
164 -74 l139 -51 120 12 c122 13 152 8 124 -19 -20 -20 -374 -33 -435 -16 -78
21 -132 73 -149 144 -9 33 4 35 37 4z m406 -301 c34 0 62 -4 62 -8 0 -4 -11
-15 -25 -24 -19 -13 -37 -15 -81 -9 -38 4 -60 3 -70 -6 -19 -15 -91 -5 -152
21 -72 32 -41 43 93 33 61 -4 138 -7 173 -7z"/>
</g>
</svg>
